<?xml version="1.0" encoding="iso-8859-1"?>
<svg enable-background="new 0 0 512 512" height="512" viewBox="0 0 512 512" width="512" xml:space="preserve" xmlns="http://www.w3.org/2000/svg">
	<symbol viewBox="0 0 430.499 430.499" class="bi bi-music" fill="currentColor" id="music" xmlns="http://www.w3.org/2000/svg">
		<g>
			<g id="Layer_7">
				<path d="M388.241,315.399c6.957,22.525-6.975,50.058-33.963,64.415c-29.737,15.806-63.967,9.587-76.438-13.891
					c-12.483-23.478,1.513-55.324,31.244-71.124c15.179-8.068,31.517-10.367,45.537-7.596l-0.674-246.313L155.534,75.548
					l-0.029,281.981c6.833,22.491-7.099,49.923-34.022,64.227c-29.737,15.8-63.958,9.6-76.438-13.878
					c-12.475-23.489,1.513-55.337,31.25-71.142c15.196-8.08,31.551-10.38,45.592-7.584l0.044-282.505L389.104,0L388.241,315.399z"/>
			</g>
		</g>
	</symbol>
	<symbol viewBox="0 0 24 24" class="bi bi-series" fill="currentColor" id="series" xmlns="http://www.w3.org/2000/svg">
		<g>
			<path fill="none" d="M0 0h24v24H0z"/>
			<path d="M15.414 5h5.594c.548 0 .992.445.992 1v14c0 .552-.455 1-.992 1H2.992A.994.994 0 0 1 2 20V6c0-.552.455-1 .992-1h5.594L6.05 2.464 7.464 1.05 11.414 5h1.172l3.95-3.95 1.414 1.414L15.414 5zM4 7v12h16V7H4z"/>
		</g>
	</symbol>
	<symbol viewBox="-2 -2 24 24" class="bi bi-movies" fill="currentColor" id="movies" xmlns="http://www.w3.org/2000/svg">
		<path d='M6 15v3h8v-7H6v4zm-2-2v-2H2V9h2V7H2v6h2zm0 2H2v1a2 2 0 0 0 2 2v-3zm14-2V7h-2v2h2v2h-2v2h2zm0 2h-2v3a2 2 0 0 0 2-2v-1zm-4-8V2H6v7h8V7zm4-2V4a2 2 0 0 0-2-2v3h2zM4 5V2a2 2 0 0 0-2 2v1h2zm0-5h12a4 4 0 0 1 4 4v12a4 4 0 0 1-4 4H4a4 4 0 0 1-4-4V4a4 4 0 0 1 4-4z'/>
	</symbol>
	<symbol viewBox="0 0 56.356 56.356" class="bi bi-books" fill="currentColor" id="books" xmlns="http://www.w3.org/2000/svg">
		<g>
			<path d="M56.356,45.455V10.417h-3.221V5.062l-24.956,5.33L3.221,5.062v5.356H0v35.037h23.507v3.504h-4.671v2.336h18.688v-2.336
				h-4.672v-3.504H56.356z M5.561,10.417V7.948l7.641,1.631v0.836v2.336v9.127H8.091l8.202,9.092l8.201-9.092H19.38v-9.127v-1.854
				l7.641,1.63v0.225V42.84L5.568,38.26V12.753V10.42H5.561V10.417z M50.806,7.951v2.469v2.335v25.51l-21.454,4.58v-30.09v-0.225
				l9.887-2.111L50.806,7.951z M32.907,20.062l-0.734-2.216l15.384-5.081l0.734,2.217L32.907,20.062z M32.907,26.327l-0.734-2.217
				l15.384-5.08l0.734,2.217L32.907,26.327z M32.907,32.587l-0.734-2.215l15.374-5.08l0.734,2.216L32.907,32.587z M32.907,38.846
				l-0.734-2.215l15.374-5.082l0.734,2.217L32.907,38.846z"/>
		</g>
	</symbol>
	<symbol viewBox="0 0 494.881 494.881" class="bi bi-courses" fill="currentColor" id="courses" xmlns="http://www.w3.org/2000/svg">
		<g id="XMLID_211_">
			<path id="XMLID_216_" d="M196.782,63.877c-0.067,0.913-0.276,1.787-0.276,2.719c0,25.56,20.716,46.269,46.273,46.269
				c25.588,0,46.286-20.71,46.286-46.269c0-0.932-0.222-1.806-0.27-2.719H197.09H196.782z"/>
			<path id="XMLID_215_" d="M366.799,278.201l-65.993-144.592c-3.881-8.501-11.933-11.822-21.559-11.822h-71.872
				c-8.525,0-16.177,1.996-20.882,8.759l-9.122,13.156l9.835-3.751l32.864-12.561c13.845-5.289,29.272,1.756,34.481,15.43
				l26.135,68.445c5.228,13.692-1.55,29.193-15.427,34.482l-25.329,9.664c-6.175,10.232-17.32,16.693-29.438,16.693
				c-5.849,0-24.418-4.521-30.76-5.904l-8.23,146.896c-0.179,2.992,0.886,5.912,2.958,8.087c2.036,2.175,4.915,3.404,7.892,3.404
				h4.269v46.541c0,13.116,10.647,23.751,23.761,23.751c13.12,0,23.761-10.635,23.761-23.751v-46.541h17.302v46.541
				c0,13.116,10.641,23.751,23.761,23.751c13.119,0,23.76-10.635,23.76-23.751v-46.541h4.299c2.996,0,5.837-1.229,7.892-3.388
				c2.054-2.167,3.137-5.08,2.977-8.057l-9.153-175.039l25.815,56.528c4.54,9.989,16.3,14.306,26.215,9.794
				C366.959,299.883,371.344,288.142,366.799,278.201z"/>
			<path id="XMLID_214_" d="M179.314,195.475l38.474,8.408c15.802,3.444,26.609,17.25,27.027,32.719l14.787-5.642
				c5.561-2.12,8.439-8.377,6.286-14.049l-26.135-68.439c-2.153-5.637-8.458-8.41-14.055-6.282l-48.069,18.366
				c-5.628,2.142-8.439,8.433-6.292,14.046L179.314,195.475z"/>
			<path id="XMLID_213_" d="M209.361,257.308c9.109,0,17.309-6.317,19.314-15.569c2.344-10.685-4.435-21.227-15.107-23.564
				l-41.26-9.016l-5.16-1.132l-10.611-27.771c-0.578-1.554-0.965-3.131-1.261-4.706l-25.452,36.666c0,0.016-0.019,0.031-0.037,0.056
				l-0.062,0.105c-3.801,5.452-4.336,13.012-2.171,18.52c2.141,5.395,7.603,10.65,14.203,12.094
				C145.072,243.719,206.095,257.308,209.361,257.308z"/>
			<path id="XMLID_212_" d="M182.869,16.56h14.221v33.092h91.974V16.56h7.553v41.808c0,4.287,3.672,8.283,8.285,8.283
				c4.576,0,8.28-3.703,8.28-8.283V8.279c0-4.602-3.027-8.279-9.897-8.279H182.869c-6.858,0-9.897,3.678-9.897,8.279
				C172.972,12.883,176.011,16.56,182.869,16.56z"/>
		</g>
	</symbol>
	<symbol viewBox="0 0 512 512" class="bi bi-show" fill="currentColor" id="show" xmlns="http://www.w3.org/2000/svg">
		<g>
			<path d="M244.425,98.725c-93.4,0-178.1,51.1-240.6,134.1c-5.1,6.8-5.1,16.3,0,23.1c62.5,83.1,147.2,134.2,240.6,134.2
				s178.1-51.1,240.6-134.1c5.1-6.8,5.1-16.3,0-23.1C422.525,149.825,337.825,98.725,244.425,98.725z M251.125,347.025
				c-62,3.9-113.2-47.2-109.3-109.3c3.2-51.2,44.7-92.7,95.9-95.9c62-3.9,113.2,47.2,109.3,109.3
				C343.725,302.225,302.225,343.725,251.125,347.025z M248.025,299.625c-33.4,2.1-61-25.4-58.8-58.8c1.7-27.6,24.1-49.9,51.7-51.7
				c33.4-2.1,61,25.4,58.8,58.8C297.925,275.625,275.525,297.925,248.025,299.625z"/>
		</g>
	</symbol>
	<symbol viewBox="0 0 512 512" class="bi bi-hide" fill="currentColor" id="hide" xmlns="http://www.w3.org/2000/svg">
		<g>
			<g>
				<path d="M256.011,106.673c-131.435,0-248.555,136.619-253.483,142.443c-3.371,3.968-3.371,9.792,0,13.781
					c2.944,3.477,45.995,53.461,108.075,93.269l66.859-66.859c-4.352-10.24-6.784-21.483-6.784-33.301
					c0-47.061,38.272-85.333,85.333-85.333c11.819,0,23.061,2.432,33.301,6.784l54.976-54.976
					C317.493,112.902,288.075,106.673,256.011,106.673z"/>
			</g>
		</g>
		<g>
			<g>
				<path d="M510.112,249.926c-2.731-3.947-48.021-67.691-124.16-108.779l58.944-58.944c4.16-4.16,4.16-10.923,0-15.083
					c-4.16-4.16-10.923-4.16-15.083,0L67.147,429.788c-4.16,4.16-4.16,10.923,0,15.083c2.069,2.091,4.8,3.136,7.531,3.136
					c2.731,0,5.461-1.045,7.552-3.115l66.88-66.88c32.96,16.085,69.312,27.328,106.901,27.328
					c131.435,0,248.555-136.619,253.483-142.443C512.587,259.206,512.864,253.894,510.112,249.926z M256.011,341.34
					c-19.691,0-37.589-6.976-52.053-18.197l119.189-119.189c11.221,14.464,18.197,32.363,18.197,52.053
					C341.344,303.068,303.072,341.34,256.011,341.34z"/>
			</g>
		</g>
	</symbol>
	<symbol viewBox="0 0 512 512" class="bi bi-search" fill="currentColor" id="search" xmlns="http://www.w3.org/2000/svg">
		<g><path d="M495,466.2L377.2,348.4c29.2-35.6,46.8-81.2,46.8-130.9C424,103.5,331.5,11,217.5,11C103.4,11,11,103.5,11,217.5   S103.4,424,217.5,424c49.7,0,95.2-17.5,130.8-46.7L466.1,495c8,8,20.9,8,28.9,0C503,487.1,503,474.1,495,466.2z M217.5,382.9   C126.2,382.9,52,308.7,52,217.5S126.2,52,217.5,52C308.7,52,383,126.3,383,217.5S308.7,382.9,217.5,382.9z"/></g>
	</symbol>
	<symbol viewBox="0 0 512 512" class="bi bi-checked" fill="currentColor" id="checked" xmlns="http://www.w3.org/2000/svg">
		<g>
			<g id="check-box-outline">
				<path d="M124.95,181.05l-35.7,35.7L204,331.5l255-255l-35.7-35.7L204,260.1L124.95,181.05z M408,408H51V51h255V0H51
					C22.95,0,0,22.95,0,51v357c0,28.05,22.95,51,51,51h357c28.05,0,51-22.95,51-51V204h-51V408z"/>
			</g>
		</g>
	</symbol>
	<symbol viewBox="0 0 512 512" class="bi bi-unchecked" fill="currentColor" id="unchecked" xmlns="http://www.w3.org/2000/svg">
		<g>
			<g id="check-box-outline-blank">
				<path d="M408,51v357H51V51H408 M408,0H51C22.95,0,0,22.95,0,51v357c0,28.05,22.95,51,51,51h357c28.05,0,51-22.95,51-51V51
					C459,22.95,436.05,0,408,0L408,0z"/>
			</g>
		</g>
	</symbol>
	<symbol viewBox="0 0 512 512" class="bi bi-delete" fill="currentColor" id="delete" xmlns="http://www.w3.org/2000/svg">
		<path d="m64.444 451.111c0 35.526 28.902 64.444 64.444 64.444h257.778c35.542 0 64.444-28.918 64.444-64.444v-322.222h-386.666z"/><path d="m322.222 32.222v-32.222h-128.889v32.222h-161.111v64.444h451.111v-64.444z"/>
	</symbol>
	<symbol viewBox="0 0 512 512" class="bi bi-dropdown" fill="currentColor" id="dropdown" xmlns="http://www.w3.org/2000/svg">
		<polygon points="0,96.879 193.129,289.379 386.257,96.879 "/>
	</symbol>
	<symbol viewBox="0 0 384.97 384.97" class="bi bi-menu" fill="currentColor" id="menu" xmlns="http://www.w3.org/2000/svg">
		<g>
			<path d="M12.03,84.212h360.909c6.641,0,12.03-5.39,12.03-12.03c0-6.641-5.39-12.03-12.03-12.03H12.03
				C5.39,60.152,0,65.541,0,72.182C0,78.823,5.39,84.212,12.03,84.212z"/>
			<path d="M372.939,180.455H12.03c-6.641,0-12.03,5.39-12.03,12.03s5.39,12.03,12.03,12.03h360.909c6.641,0,12.03-5.39,12.03-12.03
				S379.58,180.455,372.939,180.455z"/>
			<path d="M372.939,300.758H12.03c-6.641,0-12.03,5.39-12.03,12.03c0,6.641,5.39,12.03,12.03,12.03h360.909
				c6.641,0,12.03-5.39,12.03-12.03C384.97,306.147,379.58,300.758,372.939,300.758z"/>
		</g>
	</symbol>
	<symbol viewBox="0 0 52 52" class="bi bi-menu-dots" fill="currentColor" id="menu-dots" xmlns="http://www.w3.org/2000/svg">
		<path d="M20,44c0-3.3,2.7-6,6-6s6,2.7,6,6s-2.7,6-6,6S20,47.3,20,44z M20,26c0-3.3,2.7-6,6-6s6,2.7,6,6s-2.7,6-6,6
			S20,29.3,20,26z M20,8c0-3.3,2.7-6,6-6s6,2.7,6,6s-2.7,6-6,6S20,11.3,20,8z"/>
	</symbol>
	<symbol viewBox="0 0 512 512" class="bi bi-edit" fill="currentColor" id="edit" xmlns="http://www.w3.org/2000/svg">
		<g><g><g><polygon points="0,303.947 0,383.947 80,383.947 316.053,147.893 236.053,67.893"/><path d="M377.707,56.053L327.893,6.24c-8.32-8.32-21.867-8.32-30.187,0l-39.04,39.04l80,80l39.04-39.04C386.027,77.92,386.027,64.373,377.707,56.053z"/></g></g></g>
	</symbol>
	<symbol viewBox="0 0 24 24" class="bi bi-close" fill="currentColor" id="close" xmlns="http://www.w3.org/2000/svg">
		<path d="M6.22566 4.81096C5.83514 4.42044 5.20197 4.42044 4.81145 4.81096C4.42092 5.20148 4.42092 5.83465 4.81145 6.22517L10.5862 11.9999L4.81151 17.7746C4.42098 18.1651 4.42098 18.7983 4.81151 19.1888C5.20203 19.5793 5.8352 19.5793 6.22572 19.1888L12.0004 13.4141L17.7751 19.1888C18.1656 19.5793 18.7988 19.5793 19.1893 19.1888C19.5798 18.7983 19.5798 18.1651 19.1893 17.7746L13.4146 11.9999L19.1893 6.22517C19.5799 5.83465 19.5799 5.20148 19.1893 4.81096C18.7988 4.42044 18.1657 4.42044 17.7751 4.81096L12.0004 10.5857L6.22566 4.81096Z" />
	</symbol>
	<symbol viewBox="0 0 24 24" class="bi bi-filter" fill="currentColor" id="filter" xmlns="http://www.w3.org/2000/svg">
		<path d="M19 6h-14c-1.1 0-1.4.6-.6 1.4l4.2 4.2c.8.8 1.4 2.3 1.4 3.4v5l4-2v-3.5c0-.8.6-2.1 1.4-2.9l4.2-4.2c.8-.8.5-1.4-.6-1.4z"/>
	</symbol>
	<symbol viewBox="0 0 512 512" class="bi bi-plus" fill="currentColor" id="plus" xmlns="http://www.w3.org/2000/svg">
		<path d="m437.332031 192h-160v-160c0-17.664062-14.335937-32-32-32h-21.332031c-17.664062 0-32 14.335938-32 32v160h-160c-17.664062 0-32 14.335938-32 32v21.332031c0 17.664063 14.335938 32 32 32h160v160c0 17.664063 14.335938 32 32 32h21.332031c17.664063 0 32-14.335937 32-32v-160h160c17.664063 0 32-14.335937 32-32v-21.332031c0-17.664062-14.335937-32-32-32zm0 0"/>
	</symbol>
	<symbol viewBox="0 0 512 512" class="bi bi-settings" fill="currentColor" id="settings" xmlns="http://www.w3.org/2000/svg">
		<g><g><path d="M504.008,223.961c-4.121-2.587-36.412-21.931-49.246-27.802l-15.903-38.392c4.725-12.695,13.752-48.308,15.164-54.482c1.307-5.724-0.418-11.718-4.57-15.87l-24.868-24.867c-4.151-4.152-10.147-5.878-15.87-4.57c-4.682,1.071-41.226,10.23-54.482,15.164L315.84,57.239c-5.618-12.28-24.386-43.807-27.802-49.246c-3.121-4.973-8.581-7.992-14.453-7.992h-35.17c-5.872,0-11.332,3.019-14.454,7.992c-2.587,4.121-21.931,36.412-27.802,49.246l-38.392,15.903c-12.695-4.725-48.308-13.752-54.482-15.164c-5.724-1.307-11.718,0.419-15.87,4.57L62.547,87.416c-4.152,4.152-5.878,10.146-4.57,15.87c1.071,4.682,10.23,41.226,15.164,54.482L57.238,196.16c-12.28,5.618-43.807,24.386-49.246,27.802C3.019,227.083,0,232.543,0,238.415v35.17c0,5.872,3.019,11.332,7.992,14.454c4.121,2.587,36.412,21.931,49.246,27.802l15.903,38.392c-4.725,12.695-13.752,48.308-15.164,54.482c-1.307,5.724,0.418,11.718,4.57,15.87l24.868,24.868c4.152,4.152,10.148,5.879,15.87,4.57c4.682-1.071,41.226-10.23,54.482-15.164l38.392,15.903c5.618,12.28,24.386,43.807,27.802,49.246c3.122,4.973,8.582,7.992,14.454,7.992h35.17c5.872,0,11.332-3.019,14.454-7.992c2.587-4.121,21.931-36.412,27.802-49.246l38.392-15.903c12.695,4.725,48.308,13.752,54.482,15.164c5.726,1.31,11.719-0.418,15.87-4.57l24.868-24.868c4.152-4.152,5.878-10.146,4.57-15.87c-1.071-4.682-10.23-41.226-15.164-54.482l15.903-38.392c12.28-5.618,43.807-24.386,49.246-27.802c4.973-3.122,7.992-8.582,7.992-14.454v-35.17C512,232.543,508.981,227.083,504.008,223.961z M256,367.605c-61.539,0-111.605-50.066-111.605-111.605S194.461,144.396,256,144.396s111.605,50.066,111.605,111.605S317.539,367.605,256,367.605z"/></g></g>
	</symbol>
	<symbol viewBox="0 0 512 512" class="bi bi-check" fill="currentColor" id="check" xmlns="http://www.w3.org/2000/svg">
		<g><g><polygon points="344.96,44.48 119.147,270.293 30.187,181.333 0,211.52 119.147,330.667 375.147,74.667"/></g></g>
	</symbol>
	<symbol viewBox="0 0 512 512" class="bi bi-noimage" fill="currentColor" id="noimage" xmlns="http://www.w3.org/2000/svg">
		<path d="m458.706 65.529h-65.529c0-18.096-14.669-32.765-32.765-32.765h-196.588c-10.509 0-19.44 5.267-25.435 12.961l90.219 90.219c10.763-2.868 21.858-4.886 33.511-4.886 72.265 0 131.059 58.794 131.059 131.059 0 11.653-2.018 22.748-4.886 33.511l128.057 128.057c4.868-9.155 7.887-19.434 7.887-30.509v-262.117c0-36.141-29.389-65.53-65.53-65.53z"/><path d="m0 46.331 29.879 29.879c-17.944 11.701-29.879 31.869-29.879 54.848v262.118c0 36.14 29.389 65.529 65.529 65.529h346.844l65.529 65.529 46.331-46.331-477.902-477.902-46.331 46.331zm262.118 346.844c-72.265 0-131.059-58.794-131.059-131.059 0-24.232 7.059-46.663 18.572-66.155l178.642 178.642c-19.492 11.513-41.924 18.572-66.155 18.572z"/>
	</symbol>
	<symbol viewBox="0 0 512 512" class="bi bi-tv" fill="currentColor" id="tv" xmlns="http://www.w3.org/2000/svg">
		<g><path d="M35.668,8.501H14.916l2.92-2.92c0.781-0.781,0.781-2.047,0-2.828c-0.78-0.78-2.047-0.78-2.828,0L11,6.76L6.994,2.752c-0.781-0.78-2.047-0.78-2.828,0c-0.781,0.78-0.781,2.047,0,2.828l2.92,2.92H2c-1.104,0-2,0.896-2,2v23c0,1.104,0.896,2,2,2h33.668c1.105,0,2-0.896,2-2v-23C37.668,9.396,36.773,8.501,35.668,8.501z M28.834,31.501H4v-19h24.834V31.501z M32.961,19.835c-1.451,0-2.625-1.175-2.625-2.626c0-1.45,1.174-2.625,2.625-2.625c1.449,0,2.625,1.175,2.625,2.625C35.586,18.66,34.41,19.835,32.961,19.835z"/></g>
	</symbol>
	<symbol viewBox="0 0 512 512" class="bi bi-monitor" fill="currentColor" id="monitor" xmlns="http://www.w3.org/2000/svg">
		<g><g><path d="M385.031,447.728h-55.82V420.82H182.796v26.908h-55.82c-8.413,0-15.233,6.82-15.233,15.233c0,8.413,6.82,15.233,15.233,15.233h258.056c8.413,0,15.233-6.82,15.233-15.233C400.265,454.549,393.444,447.728,385.031,447.728z"/></g></g>
		<g><g><path d="M0,333.943v41.178c0,8.413,6.82,15.233,15.233,15.233h481.534c8.413,0,15.233-6.82,15.233-15.233v-41.178H0z"/></g></g>
		<g><g><path d="M496.767,33.805H15.233C6.82,33.805,0,40.626,0,49.038v254.438h512V49.038C512,40.626,505.18,33.805,496.767,33.805z"/></g></g>
	</symbol>
	<symbol viewBox="0 0 512 512" class="bi bi-up" fill="currentColor" id="up" xmlns="http://www.w3.org/2000/svg">
		<g><g><polygon points="128,48.907 0,176.907 30.187,207.093 128,109.28 225.813,207.093 256,176.907"/></g></g>
	</symbol>
	<symbol viewBox="0 0 512 512" class="bi bi-down" fill="currentColor" id="down" xmlns="http://www.w3.org/2000/svg">
		<g><g><polygon points="225.813,48.907 128,146.72 30.187,48.907 0,79.093 128,207.093 256,79.093"/></g></g>
	</symbol>
	<symbol viewBox="0 0 16 16" class="bi bi-minimize" fill="currentColor" id="minimize" xmlns="http://www.w3.org/2000/svg">
		<path d="M14 8v1H3V8h11z"/>
	</symbol>
	<symbol viewBox="0 0 16 16" class="bi bi-maximize" fill="currentColor" id="maximize" xmlns="http://www.w3.org/2000/svg">
		<path d="M4.5 3C3.67157 3 3 3.67157 3 4.5V11.5C3 12.3284 3.67157 13 4.5 13H11.5C12.3284 13 13 12.3284 13 11.5V4.5C13 3.67157 12.3284 3 11.5 3H4.5ZM4.5 4H11.5C11.7761 4 12 4.22386 12 4.5V11.5C12 11.7761 11.7761 12 11.5 12H4.5C4.22386 12 4 11.7761 4 11.5V4.5C4 4.22386 4.22386 4 4.5 4Z"/>
	</symbol>
	<symbol viewBox="0 0 16 16" class="bi bi-restore" fill="currentColor" id="restore" xmlns="http://www.w3.org/2000/svg">
		<path d="M3 5v9h9V5H3zm8 8H4V6h7v7z"/><path fill-rule="evenodd" clip-rule="evenodd" d="M5 5h1V4h7v7h-1v1h2V3H5v2z"/>
	</symbol>
	<symbol viewBox="0 0 32 32" class="bi bi-update" fill="currentColor" id="update" xmlns="http://www.w3.org/2000/svg">
		<g>
			<path d="M25.883,6.086l-2.82,2.832C24.953,10.809,26,13.324,26,16c0,5.516-4.484,10-10,10v-2l-4,4l4,4v-2
				c7.719,0,14-6.281,14-14C30,12.254,28.539,8.734,25.883,6.086z"/>
			<path d="M20,4l-4-4v2C8.281,2,2,8.281,2,16c0,3.746,1.461,7.266,4.117,9.914l2.82-2.832
				C7.047,21.191,6,18.676,6,16c0-5.516,4.484-10,10-10v2L20,4z"/>
		</g>
	</symbol>
	<symbol viewBox="0 0 224.005 224.005" class="bi bi-volume" fill="currentColor" id="volume" xmlns="http://www.w3.org/2000/svg">
		<g>
			<path d="M185.302,0c-2.1,0-4.2,0.5-5.8,1.601l-95.1,47.219h-45.7c-7.9,0-14.2,6.303-14.2,14.206v98.139
				c0,7.303,6.3,13.606,14.2,13.606h45.7l95.1,47.719c8.9,4.702,20-2.101,20-12.605V14.106C199.502,6.303,193.202,0,185.302,0z
				M171.602,36.715v150.66l-77.8-38.816c-2.1-1-4.2-1.601-6.3-1.601h-35.2V77.131h35.2c2.1,0,4.2-0.5,6.3-1.601L171.602,36.715
				L171.602,36.715z"/>
		</g>
	</symbol>
	<symbol viewBox="0 0 485 485" class="bi bi-playing" fill="currentColor" id="playing" xmlns="http://www.w3.org/2000/svg">
		<path d="M413.974,71.026C368.171,25.225,307.274,0,242.5,0S116.829,25.225,71.026,71.026C25.225,116.829,0,177.726,0,242.5
			s25.225,125.671,71.026,171.474C116.829,459.775,177.726,485,242.5,485s125.671-25.225,171.474-71.026
			C459.775,368.171,485,307.274,485,242.5S459.775,116.829,413.974,71.026z M242.5,455C125.327,455,30,359.673,30,242.5
			S125.327,30,242.5,30S455,125.327,455,242.5S359.673,455,242.5,455z"/>
		<polygon points="181.062,336.575 343.938,242.5 181.062,148.425 	"/>
	</symbol>
	<symbol viewBox="0 0 330 330" class="bi bi-pause" fill="currentColor" id="pause" xmlns="http://www.w3.org/2000/svg">
		<path d="M165,0C74.019,0,0,74.019,0,165s74.019,165,165,165s165-74.019,165-165S255.981,0,165,0z M165,300
		c-74.439,0-135-60.561-135-135S90.561,30,165,30s135,60.561,135,135S239.439,300,165,300z"/>
		<path d="M194.25,82.5c-8.284,0-15,6.716-15,15v135c0,8.284,6.716,15,15,15s15-6.716,15-15v-135
			C209.25,89.216,202.534,82.5,194.25,82.5z"/>
		<path d="M135.75,82.5c-8.284,0-15,6.716-15,15v135c0,8.284,6.716,15,15,15s15-6.716,15-15v-135
			C150.75,89.216,144.034,82.5,135.75,82.5z"/>
	</symbol>
	<symbol viewBox="0 0 24 24" class="bi bi-casting" fill="currentColor" id="casting" xmlns="http://www.w3.org/2000/svg">
		<path d="M1,18v3h3c0,-1.66 -1.34,-3 -3,-3zM1,14v2c2.76,0 5,2.24 5,5h2c0,-3.87 -3.13,-7 -7,-7zM19,7L5,7v1.63c3.96,1.28 7.09,4.41 8.37,8.37L19,17L19,7zM1,10v2c4.97,0 9,4.03 9,9h2c0,-6.08 -4.93,-11 -11,-11zM21,3L3,3c-1.1,0 -2,0.9 -2,2v3h2L3,5h18v14h-7v2h7c1.1,0 2,-0.9 2,-2L23,5c0,-1.1 -0.9,-2 -2,-2z"/>
	</symbol>
	<symbol viewBox="0 0 512 512" class="bi bi-serving" fill="currentColor" id="serving" xmlns="http://www.w3.org/2000/svg">
		<path d="M476.035,313.415c16.927-102.591-38.981-201.744-132.63-241.677C329.8,36.869,295.92,12.006,256,12.006
			c-39.85,0-73.791,24.816-87.411,59.734C75.266,111.537,19.16,210.344,35.901,313.004C13.872,330.402,0,357.363,0,386.754
			c0,72.402,78.903,117.237,140.807,81.177c70.53,42.637,159.285,42.79,230.004,0.224C432.605,504.547,512,459.922,512,387.215
			C512,357.796,498.101,330.812,476.035,313.415z M445.389,297.414c-88.284-26.686-157.197,77.324-100.678,148.132
			c-55.441,29.253-122.253,29.221-177.685-0.133c57.147-70.905-12.119-175.204-100.466-148.445
			c-7.938-75.558,29.599-148.481,95.795-185.924c2.73,49.287,43.688,88.549,93.644,88.549c49.958,0,90.914-39.262,93.644-88.549
			C415.902,148.523,453.533,221.61,445.389,297.414z"/>
	</symbol>
	<symbol viewBox="0 0 24 24" class="bi bi-hashtag" fill="currentColor" id="hashtag" xmlns="http://www.w3.org/2000/svg">
		<path fill-rule="evenodd" clip-rule="evenodd" d="M8 4V8H4V10H8V14H4V16H8V20H10V16H14V20H16V16H20V14H16V10H20V8H16V4H14V8H10V4H8ZM14 14V10H10V14H14Z"/>
	</symbol>
	<symbol viewBox="0 0 52 52" class="bi bi-back" fill="currentColor" id="back" xmlns="http://www.w3.org/2000/svg">
		<path d="M50,24H6.83L27.41,3.41a2,2,0,0,0,0-2.82,2,2,0,0,0-2.82,0l-24,24a1.79,1.79,0,0,0-.25.31A1.19,1.19,0,0,0,.25,25c0,.07-.07.13-.1.2l-.06.2a.84.84,0,0,0,0,.17,2,2,0,0,0,0,.78.84.84,0,0,0,0,.17l.06.2c0,.07.07.13.1.2a1.19,1.19,0,0,0,.09.15,1.79,1.79,0,0,0,.25.31l24,24a2,2,0,1,0,2.82-2.82L6.83,28H50a2,2,0,0,0,0-4Z"/>
	</symbol>
	<symbol viewBox="0 0 24 24" class="bi bi-closed-caption" fill="currentColor" id="closed-caption" xmlns="http://www.w3.org/2000/svg">
		<g>
			<path fill="none" d="M0 0H24V24H0z"/>
			<path d="M21 3c.552 0 1 .448 1 1v16c0 .552-.448 1-1 1H3c-.552 0-1-.448-1-1V4c0-.552.448-1 1-1h18zM9 8c-2.208 0-4 1.792-4 4s1.792 4 4 4c1.1 0 2.1-.45 2.828-1.172l-1.414-1.414C10.053 13.776 9.553 14 9 14c-1.105 0-2-.895-2-2s.895-2 2-2c.55 0 1.048.22 1.415.587l1.414-1.414C11.105 8.448 10.105 8 9 8zm7 0c-2.208 0-4 1.792-4 4s1.792 4 4 4c1.104 0 2.104-.448 2.828-1.172l-1.414-1.414c-.362.362-.862.586-1.414.586-1.105 0-2-.895-2-2s.895-2 2-2c.553 0 1.053.224 1.415.587l1.414-1.414C18.105 8.448 17.105 8 16 8z"/>
		</g>
	</symbol>
	<symbol viewBox="0 0 512 512" class="bi bi-chords" fill="currentColor" id="chords" xmlns="http://www.w3.org/2000/svg">
		<path d="M502.63 39L473 9.37a32 32 0 0 0-45.26 0L381.46 55.7a35.14 35.14 0 0 0-8.53 13.79L360.77 106l-76.26 76.26c-12.16-8.76-25.5-15.74-40.1-19.14-33.45-7.78-67-.88-89.88 22a82.45 82.45 0 0 0-20.24 33.47c-6 18.56-23.21 32.69-42.15 34.46-23.7 2.27-45.73 11.45-62.61 28.44C-16.11 327-7.9 409 47.58 464.45S185 528 230.56 482.52c17-16.88 26.16-38.9 28.45-62.71 1.76-18.85 15.89-36.13 34.43-42.14a82.6 82.6 0 0 0 33.48-20.25c22.87-22.88 29.74-56.36 22-89.75-3.39-14.64-10.37-28-19.16-40.2L406 151.23l36.48-12.16a35.14 35.14 0 0 0 13.79-8.53l46.33-46.32a32 32 0 0 0 .03-45.22zM208 352a48 48 0 1 1 48-48 48 48 0 0 1-48 48z"/>
	</symbol>
	<symbol viewBox="0 0 512 512" class="bi bi-subtitles" fill="currentColor" id="subtitles" xmlns="http://www.w3.org/2000/svg">
		<path d="M96 416Q82 416 73 407 64 398 64 384L64 128Q64 114 73 105 82 96 96 96L416 96Q430 96 439 105 448 114 448 128L448 384Q448 398 439 407 430 416 416 416L96 416ZM176 296L176 256 112 256 112 296 176 296ZM400 296L400 256 208 256 208 296 400 296ZM304 368L304 328 112 328 112 368 304 368ZM400 368L400 328 336 328 336 368 400 368Z" />
	</symbol>
	<symbol viewBox="0 0 24 24" class="bi bi-miniplayer" fill="currentColor" id="miniplayer" xmlns="http://www.w3.org/2000/svg">
		<rect fill="transparent" x="2" y="4" width="20" height="16" rx="2" stroke="white" stroke-width="2" stroke-linecap="round" stroke-linejoin="round"/>
		<rect fill="transparent" x="13" y="13" width="9" height="7" rx="2" stroke="white" stroke-width="2" stroke-linecap="round" stroke-linejoin="round"/>
	</symbol>
	<symbol viewBox="0 0 24 24" class="bi bi-defaultplayer" fill="currentColor" id="defaultplayer" xmlns="http://www.w3.org/2000/svg">
		<rect fill="transparent" x="2" y="4" width="20" height="16" rx="2" stroke="white" stroke-width="2" stroke-linecap="round" stroke-linejoin="round"/>
	</symbol>
	<symbol viewBox="0 0 24 24" class="bi bi-fullplayer" fill="currentColor" id="fullplayer" xmlns="http://www.w3.org/2000/svg">
		<g>
			<path fill="none" d="M0 0h24v24H0z"/>
			<path d="M16 3h6v6h-2V5h-4V3zM2 3h6v2H4v4H2V3zm18 16v-4h2v6h-6v-2h4zM4 19h4v2H2v-6h2v4z"/>
		</g>
	</symbol>
	<symbol viewBox="0 0 30.051 30.051" class="bi bi-skip-prev" fill="currentColor" id="skip-prev" xmlns="http://www.w3.org/2000/svg">
		<g>
			<path d="M13.766,14.507l5.082-3.688c0.184-0.135,0.43-0.154,0.633-0.049
				c0.207,0.104,0.338,0.312,0.338,0.541v7.381c0,0.23-0.131,0.439-0.338,0.545c-0.082,0.039-0.182,0.062-0.275,0.062
				c-0.127,0-0.252-0.037-0.357-0.117l-5.082-3.688c-0.156-0.113-0.252-0.297-0.252-0.494C13.514,14.809,13.611,14.621,13.766,14.507z
				"/>
			<path d="M10.574,10.74h1.541c0.189,0,0.342,0.154,0.342,0.34v7.926c0,0.189-0.152,0.346-0.342,0.346h-1.541
				c-0.189,0-0.34-0.156-0.34-0.346v-7.926C10.234,10.894,10.385,10.74,10.574,10.74z"/>
			<path d="M30.051,15.026c0-8.298-6.725-15.025-15.026-15.025C6.729,0.002,0,6.729,0,15.026
				c0,8.301,6.729,15.023,15.025,15.023C23.326,30.05,30.051,23.327,30.051,15.026z M27.541,15.026
				c0,6.914-5.604,12.516-12.516,12.516S2.512,21.94,2.512,15.026S8.113,2.512,15.025,2.512S27.541,8.113,27.541,15.026z"/>
		</g>
	</symbol>
	<symbol viewBox="0 0 30.049 30.049" class="bi bi-skip-next" fill="currentColor" id="skip-next" xmlns="http://www.w3.org/2000/svg">
		<g>
			<path d="M16.281,14.506l-5.078-3.688c-0.186-0.135-0.434-0.154-0.637-0.049
				c-0.207,0.104-0.334,0.312-0.334,0.541v7.381c0,0.23,0.127,0.439,0.334,0.545c0.086,0.039,0.18,0.062,0.277,0.062
				c0.127,0,0.254-0.037,0.359-0.117l5.078-3.688c0.16-0.113,0.252-0.297,0.252-0.494C16.534,14.807,16.438,14.619,16.281,14.506z"/>
			<path d="M19.477,10.738h-1.545c-0.188,0-0.338,0.154-0.338,0.34v7.926c0,0.189,0.15,0.346,0.338,0.346h1.545
				c0.189,0,0.338-0.156,0.338-0.346v-7.926C19.814,10.893,19.667,10.738,19.477,10.738z"/>
			<path d="M15.023,30.049c8.295,0,15.025-6.723,15.025-15.023C30.049,6.727,23.319,0,15.023,0
				C6.725,0,0,6.727,0,15.025C0,23.326,6.725,30.049,15.023,30.049z M15.023,2.51c6.914,0,12.516,5.602,12.516,12.516
				s-5.602,12.516-12.516,12.516c-6.912,0-12.516-5.602-12.516-12.516S8.111,2.51,15.023,2.51z"/>
		</g>
	</symbol>
	<symbol viewBox="0 0 512 512" class="bi bi-subtitles" fill="currentColor" id="subtitles" xmlns="http://www.w3.org/2000/svg">
		<path d="M96 416Q82 416 73 407 64 398 64 384L64 128Q64 114 73 105 82 96 96 96L416 96Q430 96 439 105 448 114 448 128L448 384Q448 398 439 407 430 416 416 416L96 416ZM176 296L176 256 112 256 112 296 176 296ZM400 296L400 256 208 256 208 296 400 296ZM304 368L304 328 112 328 112 368 304 368ZM400 368L400 328 336 328 336 368 400 368Z" />
	</symbol>
	<symbol viewBox="0 0 24 24" class="bi bi-checked" fill="currentColor" id="checked" xmlns="http://www.w3.org/2000/svg">
		<path d="M19 0h-14c-2.762 0-5 2.239-5 5v14c0 2.761 2.238 5 5 5h14c2.762 0 5-2.239 5-5v-14c0-2.761-2.238-5-5-5zm-8.959 17l-4.5-4.319 1.395-1.435 3.08 2.937 7.021-7.183 1.422 1.409-8.418 8.591z"/>
	</symbol>
	<symbol viewBox="0 0 24 24" class="bi bi-unchecked" fill="currentColor" id="unchecked" xmlns="http://www.w3.org/2000/svg">
		<path d="M5 2c-1.654 0-3 1.346-3 3v14c0 1.654 1.346 3 3 3h14c1.654 0 3-1.346 3-3v-14c0-1.654-1.346-3-3-3h-14zm19 3v14c0 2.761-2.238 5-5 5h-14c-2.762 0-5-2.239-5-5v-14c0-2.761 2.238-5 5-5h14c2.762 0 5 2.239 5 5z"/>
	</symbol>
</svg>
